:SAMPLES-PER-SECOND 30
:FULLY-SPECIFIED
:DEGREES
181
root  -16.7714 40.9084 -10.8046 -6.2876 -88.4264 4.763
RightUpLeg  1.04614 -10.2253 -7.16925
RightLeg  9.12213 -7.75155 1.8398
RightFoot  -5.90511 -0.147845 2.2584
RightToes  5.82063e-011 0 -3.6325e-017
Spine  5.21769 -0.0840688 0.431184
Spine1  3.50889 0.290095 -1.56339
HEad  -10.8629 -5.09408 1.85044
LeftShoulder1  1.07004 -1.99 -12.3083
LeftArm  -20.1241 19.3833 -6.95608
LeftForeArm  7.48539 -6.92084 -0.466131
LeftHand  -0.244104 0.0205437 5.32207
RightShoulder  0.114827 -2.73364 7.34122
RightArm  -25.4048 -8.71097 4.50098
RightForeArm  -0.589904 12.2474 3.08825
RightHand  -1.06906 2.67201 -15.54
LeftUpLeg  3.61256 4.53873 -1.3685
LeftLeg  2.01011 20.3046 -5.31951
LeftFoot  -6.51231 -0.113744 3.62676
LeftToes  -1.33699e-010 -8.10125e-011 -3.35536e-011
182
root  -16.6892 40.939 -10.8908 -8.8801 -88.6849 7.48422
RightUpLeg  1.25403 -10.2691 -7.43511
RightLeg  8.2397 -7.26444 2.65404
RightFoot  -5.43961 -0.151456 2.21929
RightToes  5.82063e-011 0 -3.6325e-017
Spine  4.88507 0.0734566 0.532426
Spine1  3.27001 0.488705 -1.69501
HEad  -10.7005 -5.98223 1.28752
LeftShoulder1  0.890029 -1.49764 -10.433
LeftArm  -21.0624 18.4454 -6.43633
LeftForeArm  7.68782 -7.13978 -0.234681
LeftHand  -0.244104 0.0205437 5.32207
RightShoulder  0.0887994 -2.85991 6.08191
RightArm  -25.8289 -7.71545 3.68538
RightForeArm  -1.08233 12.4072 3.12536
RightHand  -1.15587 2.99229 -16.1518
LeftUpLeg  3.52012 4.42256 -1.37225
LeftLeg  1.56706 20.6465 -5.3649
LeftFoot  -6.11701 -0.133247 3.72739
LeftToes  -1.33699e-010 -8.10125e-011 -3.35536e-011
183
root  -16.6094 40.9608 -10.999 -10.7859 -88.8972 9.36795
RightUpLeg  1.38343 -10.2203 -7.43535
RightLeg  7.74497 -6.86249 3.01349
RightFoot  -5.28641 -0.144446 2.05079
RightToes  5.82063e-011 0 -3.6325e-017
Spine  4.6679 0.178954 0.33708
Spine1  3.28883 0.564543 -1.56326
HEad  -10.7484 -6.66586 0.836872
LeftShoulder1  0.729011 -0.973407 -8.73759
LeftArm  -21.7748 17.3537 -6.00234
LeftForeArm  7.85539 -7.03555 -0.0565307
LeftHand  -0.244104 0.0205437 5.32207
RightShoulder  0.0743735 -2.92433 4.98571
RightArm  -26.1495 -6.64737 3.04767
RightForeArm  -1.32192 12.2247 3.10601
RightHand  -1.24572 3.31294 -16.7545
LeftUpLeg  3.46237 4.42166 -1.26533
LeftLeg  1.42413 20.828 -5.33934
LeftFoot  -5.81271 -0.15 3.83146
LeftToes  -1.33699e-010 -8.10125e-011 -3.35536e-011
184
root  -16.5488 40.9788 -11.1269 -12.306 -88.8231 10.761
RightUpLeg  1.55923 -9.94239 -7.23712
RightLeg  7.41963 -7.32506 3.04911
RightFoot  -5.14104 -0.130647 1.76913
RightToes  5.82063e-011 0 -3.6325e-017
Spine  4.42854 0.160004 -0.265841
Spine1  3.53748 0.433746 -1.06817
HEad  -10.7825 -7.28743 0.630957
LeftShoulder1  0.595258 -0.482744 -7.22736
LeftArm  -22.1037 16.251 -5.54036
LeftForeArm  8.12849 -6.91007 -0.0186962
LeftHand  -0.244104 0.0205437 5.32207
RightShoulder  0.0514446 -3.07503 4.00554
RightArm  -26.3501 -5.49876 2.67364
RightForeArm  -1.4743 11.6559 3.04145
RightHand  -1.38347 3.87811 -17.4676
LeftUpLeg  3.49083 4.4097 -1.15303
LeftLeg  1.40099 20.7593 -5.25786
LeftFoot  -5.55743 -0.160325 3.8361
LeftToes  -1.33699e-010 -8.10125e-011 -3.35536e-011
185
root  -16.5058 40.99 -11.2625 -14.1433 -88.4757 12.4683
RightUpLeg  1.68241 -9.68577 -7.0377
RightLeg  7.3771 -8.01231 2.89849
RightFoot  -5.06391 -0.121975 1.6079
RightToes  5.82063e-011 0 -3.6325e-017
Spine  4.14546 0.058091 -1.11121
Spine1  3.83988 0.169768 -0.346825
HEad  -10.6661 -7.92143 0.554651
LeftShoulder1  0.517574 -0.185379 -6.21127
LeftArm  -22.5135 15.1535 -4.9148
LeftForeArm  8.26451 -6.89154 0.0324354
LeftHand  -0.244104 0.0205437 5.32207
RightShoulder  0.0163546 -3.35767 3.02153
RightArm  -26.5764 -4.47996 2.61398
RightForeArm  -1.27816 10.8361 2.8993
RightHand  -1.53688 4.54722 -18.0945
LeftUpLeg  3.50806 4.32534 -1.12168
LeftLeg  1.43956 20.5397 -5.12271
LeftFoot  -5.34843 -0.165785 3.782
LeftToes  -1.33699e-010 -8.10125e-011 -3.35536e-011
186
root  -16.4725 40.9945 -11.396 -15.7131 -88.0605 13.9406
RightUpLeg  1.75787 -9.62418 -6.95033
RightLeg  7.4797 -8.37195 2.78326
RightFoot  -5.17023 -0.113208 1.44598
RightToes  5.82063e-011 0 -3.6325e-017
Spine  3.93379 -0.0411144 -1.78405
Spine1  4.0276 -0.033198 0.107758
HEad  -10.4581 -8.44774 0.557505
LeftShoulder1  0.483615 -0.0818581 -5.59759
LeftArm  -23.5862 13.9773 -4.38062
LeftForeArm  8.42263 -6.96628 0.295992
LeftHand  -0.244104 0.0205437 5.32207
RightShoulder  -0.0159416 -3.65626 2.2774
RightArm  -26.8135 -3.81842 2.60967
RightForeArm  -1.01363 9.89527 2.68658
RightHand  -1.68901 5.14072 -18.7512
LeftUpLeg  3.46657 4.25035 -1.11432
LeftLeg  1.54714 20.2677 -4.98535
LeftFoot  -5.17418 -0.171978 3.77032
LeftToes  -1.33699e-010 -8.10125e-011 -3.35536e-011
